<?xml version="1.0" standalone="no"?>
<svg width="567" height="384" viewBox="0 0 567 384" xmlns="http://www.w3.org/2000/svg">
<title>
C:/Documents and Settings/camsonne/Documents/SVG/pulselandausmooth.svg
</title>
<desc>
Creator: ROOT Version 5.34/02
CreationDate: Sun Mar 31 22:20:09 2013</desc>
<defs>
</defs>
<rect x="0" y="0" width="567" height="384" fill="white"/>
<rect x="57" y="38" width="453" height="308" fill="white"/>
<rect x="57" y="38" width="453" height="308" fill="none" stroke="white"/>
<rect x="57" y="38" width="453" height="308" fill="white"/>
<rect x="57" y="38" width="453" height="308" fill="none" stroke="white"/>
<path d="M61,53h 91l 3, -1h 5l 1, 1l 4, 4l 1, 2l 2, 3l 1, 3l 1, 3v 2l 1, 5l 1, 6l 1, 7l 1, 8l 2, 12l 3, 29l 1, 11l 2, 13l 1, 19l 3, 32l 1, 12l 1, 11l 5, 42l 1, 11l 1, 8l 1, 6l 1, 6v 1l 2, 6l 1, 5l 1, 5l 1, 3l 2, 2l 1, 1l 1, 1l 1, -1l 1, -2l 1, -3l 1,
 -5l 2, -8l 2, -9l 1, -5l 8, -26l 2, -7l 1, -8l 4, -16l 2, -11l 2, -5l 2, -8l 3, -9l 4, -12l 4, -11l 5, -14l 6, -15l 3, -7l 3, -7l 6, -11l 5, -9l 4, -5l 3, -4l 6, -6l 7, -7l 2, -2l 3, -1l 5, -2l 1, -1l 2, -2l 5, -5l 2, -2h 2l 7, -1v -1l 2, -1l 6, -6l
 1, -2l 9, 1l 6, -1l 3, -1l 8, -3l 2, -1l 9, -1l 9, -1l 6, -3h 12l 3, -1l 5, -1l 1, -1l 9, 2l 3, -1l 5, -2h 19l 9, -2h 18l 9, -1h 19l 9, -1" fill="none" stroke="black"/></svg>
