<?xml version="1.0" encoding="UTF-8" standalone="no"?>
<svg
   xmlns:dc="http://purl.org/dc/elements/1.1/"
   xmlns:cc="http://creativecommons.org/ns#"
   xmlns:rdf="http://www.w3.org/1999/02/22-rdf-syntax-ns#"
   xmlns:svg="http://www.w3.org/2000/svg"
   xmlns="http://www.w3.org/2000/svg"
   xmlns:sodipodi="http://sodipodi.sourceforge.net/DTD/sodipodi-0.dtd"
   xmlns:inkscape="http://www.inkscape.org/namespaces/inkscape"
   width="567"
   height="384"
   viewBox="0 0 567 384"
   id="svg2886"
   version="1.1"
   inkscape:version="0.47 r22583"
   sodipodi:docname="pulselandau.svg">
  <metadata
     id="metadata2908">
    <rdf:RDF>
      <cc:Work
         rdf:about="">
        <dc:format>image/svg+xml</dc:format>
        <dc:type
           rdf:resource="http://purl.org/dc/dcmitype/StillImage" />
      </cc:Work>
    </rdf:RDF>
  </metadata>
  <sodipodi:namedview
     pagecolor="#ffffff"
     bordercolor="#666666"
     borderopacity="1"
     objecttolerance="10"
     gridtolerance="10"
     guidetolerance="10"
     inkscape:pageopacity="0"
     inkscape:pageshadow="2"
     inkscape:window-width="640"
     inkscape:window-height="481"
     id="namedview2906"
     showgrid="false"
     inkscape:zoom="0.61458333"
     inkscape:cx="283.5"
     inkscape:cy="192"
     inkscape:window-x="0"
     inkscape:window-y="0"
     inkscape:window-maximized="0"
     inkscape:current-layer="svg2886" />
  <title
     id="title2888">
C:/Documents and Settings/camsonne/Documents/SVG/pulselandau.svg
</title>
  <desc
     id="desc2890">
Creator: ROOT Version 5.34/02
CreationDate: Sun Mar 31 22:09:44 2013</desc>
  <defs
     id="defs2892">
    <inkscape:perspective
       sodipodi:type="inkscape:persp3d"
       inkscape:vp_x="0 : 192 : 1"
       inkscape:vp_y="0 : 1000 : 0"
       inkscape:vp_z="567 : 192 : 1"
       inkscape:persp3d-origin="283.5 : 128 : 1"
       id="perspective2910" />
  </defs>
  <rect
     x="57"
     y="38"
     width="453"
     height="308"
     fill="white"
     id="rect2896" />
  <rect
     x="57"
     y="38"
     width="453"
     height="308"
     fill="none"
     stroke="white"
     id="rect2898" />
  <rect
     x="57"
     y="38"
     width="453"
     height="308"
     fill="white"
     id="rect2900" />
  <rect
     x="57"
     y="38"
     width="453"
     height="308"
     fill="none"
     stroke="white"
     id="rect2902" />
  <path
     d="M57,53h 109v 17h 9v 67h 9v 98h 9v 74h 9v 23h 9v -33h 9v -33h 9v -40h 9v -29h 9v -25h 9v -22h 9v -18h 9v -14h 9v -10h 10v -9h 9v -4h 9v -9h 9v -2h 9v -9h 9v 1h 9v -2h 9v -4h 9v -1h 9v -1h 9v -3h 18v -3h 9v 2h 10v -3h 27v -2h 27v -1h 27v -1h  9"
     fill="none"
     stroke="black"
     id="path2904" />
</svg>
